<svg width="64" height="64" viewBox="0 0 64 64" fill="none" xmlns="http://www.w3.org/2000/svg" role="img" aria-label="ClientFlow AI logo">
  <defs>
    <linearGradient id="shell" x1="8" y1="7" x2="56" y2="58" gradientUnits="userSpaceOnUse">
      <stop stop-color="#38BDF8"/>
      <stop offset="0.52" stop-color="#7C3AED"/>
      <stop offset="1" stop-color="#22C55E"/>
    </linearGradient>
    <linearGradient id="flow" x1="18" y1="44" x2="47" y2="18" gradientUnits="userSpaceOnUse">
      <stop stop-color="#34D399"/>
      <stop offset="0.5" stop-color="#38BDF8"/>
      <stop offset="1" stop-color="#A78BFA"/>
    </linearGradient>
    <radialGradient id="glow" cx="0" cy="0" r="1" gradientUnits="userSpaceOnUse" gradientTransform="translate(20 16) rotate(50) scale(52)">
      <stop stop-color="#1D4ED8" stop-opacity="0.58"/>
      <stop offset="0.58" stop-color="#111827" stop-opacity="0.72"/>
      <stop offset="1" stop-color="#050816"/>
    </radialGradient>
    <filter id="softShadow" x="-20%" y="-20%" width="140%" height="140%" color-interpolation-filters="sRGB">
      <feDropShadow dx="0" dy="8" stdDeviation="6" flood-color="#020617" flood-opacity="0.45"/>
    </filter>
  </defs>

  <rect width="64" height="64" rx="16" fill="#050816"/>
  <rect x="5.5" y="5.5" width="53" height="53" rx="15.5" fill="url(#glow)" stroke="url(#shell)" stroke-width="2.4"/>

  <g filter="url(#softShadow)">
    <path d="M45.8 18.7C41.8 14.9 36.8 13 31.5 13C20.7 13 12.7 20.8 12.7 31.4C12.7 42.2 20.9 50 31.6 50C36.8 50 41.7 48.2 45.8 44.5" stroke="url(#flow)" stroke-width="5.5" stroke-linecap="round"/>
    <path d="M21 37.3C26.5 29.2 33.4 30.5 39.7 22.6" stroke="#E0F2FE" stroke-width="2.7" stroke-linecap="round" opacity="0.95"/>
    <path d="M36.2 21.9L41.6 21.5L40.5 26.8" stroke="#E0F2FE" stroke-width="2.7" stroke-linecap="round" stroke-linejoin="round" opacity="0.95"/>

    <circle cx="19.8" cy="38.2" r="5.4" fill="#22C55E" stroke="#DCFCE7" stroke-width="2"/>
    <circle cx="31.8" cy="29.2" r="5.4" fill="#38BDF8" stroke="#E0F2FE" stroke-width="2"/>
    <circle cx="44.4" cy="20.8" r="5.4" fill="#8B5CF6" stroke="#EDE9FE" stroke-width="2"/>

    <path d="M46.8 36.2L48.7 40.4L53 42.2L48.7 44.1L46.8 48.3L44.9 44.1L40.7 42.2L44.9 40.4L46.8 36.2Z" fill="#FACC15"/>
    <path d="M17.2 14.1L18.4 16.7L21 17.8L18.4 18.9L17.2 21.5L16.1 18.9L13.5 17.8L16.1 16.7L17.2 14.1Z" fill="#5EEAD4"/>
  </g>
</svg>
