<svg width="64" height="64" viewBox="0 0 64 64" fill="none" xmlns="http://www.w3.org/2000/svg">
  <rect width="64" height="64" rx="16" fill="#050816"/>
  <rect x="6" y="6" width="52" height="52" rx="15" fill="#0F172A" stroke="#7C3AED" stroke-width="2"/>
  <path d="M18 42C24 31.5 32.5 31.5 38 22" stroke="#38BDF8" stroke-width="4" stroke-linecap="round"/>
  <path d="M26 43C31.5 36.5 39 35.5 46 25" stroke="#A78BFA" stroke-width="4" stroke-linecap="round"/>
  <circle cx="18" cy="42" r="5.5" fill="#38BDF8" stroke="#E0F2FE" stroke-width="2"/>
  <circle cx="32" cy="32" r="5.5" fill="#FACC15" stroke="#FEF9C3" stroke-width="2"/>
  <circle cx="46" cy="22" r="5.5" fill="#A78BFA" stroke="#EDE9FE" stroke-width="2"/>
  <path d="M44.5 40.5L46.2 44.3L50 46L46.2 47.7L44.5 51.5L42.8 47.7L39 46L42.8 44.3L44.5 40.5Z" fill="#22C55E"/>
  <path d="M17.5 14.5L18.8 17.2L21.5 18.5L18.8 19.8L17.5 22.5L16.2 19.8L13.5 18.5L16.2 17.2L17.5 14.5Z" fill="#FACC15"/>
</svg>
